<mxfile host="Electron" agent="Mozilla/5.0 (Windows NT 10.0; Win64; x64) AppleWebKit/537.36 (KHTML, like Gecko) draw.io/27.0.2 Chrome/134.0.6998.205 Electron/35.3.0 Safari/537.36" version="27.0.2">
  <diagram name="Page-1" id="cv6Xvioe6xu670ziKNyv">
    <mxGraphModel dx="2052" dy="1187" grid="1" gridSize="10" guides="1" tooltips="1" connect="1" arrows="1" fold="1" page="1" pageScale="1" pageWidth="850" pageHeight="1100" math="0" shadow="0">
      <root>
        <mxCell id="0" />
        <mxCell id="1" parent="0" />
        <mxCell id="kJaCr1eufXVxQuJp8W4G-1" value="NPC Creation" style="swimlane;whiteSpace=wrap;html=1;" parent="1" vertex="1">
          <mxGeometry y="60" width="200" height="110" as="geometry" />
        </mxCell>
        <mxCell id="kJaCr1eufXVxQuJp8W4G-2" value="This creates the Base NPC with all shared stats and values" style="text;html=1;align=center;verticalAlign=middle;whiteSpace=wrap;rounded=0;" parent="kJaCr1eufXVxQuJp8W4G-1" vertex="1">
          <mxGeometry x="10" y="30" width="190" height="80" as="geometry" />
        </mxCell>
        <mxCell id="kJaCr1eufXVxQuJp8W4G-8" value="" style="edgeStyle=orthogonalEdgeStyle;rounded=0;orthogonalLoop=1;jettySize=auto;html=1;startArrow=classic;startFill=0;endArrow=none;" parent="1" source="kJaCr1eufXVxQuJp8W4G-5" target="kJaCr1eufXVxQuJp8W4G-6" edge="1">
          <mxGeometry relative="1" as="geometry" />
        </mxCell>
        <mxCell id="kJaCr1eufXVxQuJp8W4G-5" value="Job Assignment" style="swimlane;whiteSpace=wrap;html=1;" parent="1" vertex="1">
          <mxGeometry x="185" y="210" width="210" height="80" as="geometry" />
        </mxCell>
        <mxCell id="kJaCr1eufXVxQuJp8W4G-9" value="Here we determine if the NPC &lt;br&gt;is an Adventurer, Informant, Builder&lt;div&gt;and then finish assigning their values&lt;/div&gt;" style="text;html=1;align=center;verticalAlign=middle;resizable=0;points=[];autosize=1;strokeColor=none;fillColor=none;" parent="kJaCr1eufXVxQuJp8W4G-5" vertex="1">
          <mxGeometry x="-10" y="20" width="220" height="60" as="geometry" />
        </mxCell>
        <mxCell id="kJaCr1eufXVxQuJp8W4G-6" value="BaseNPCList" style="whiteSpace=wrap;html=1;" parent="1" vertex="1">
          <mxGeometry x="230" y="100" width="120" height="60" as="geometry" />
        </mxCell>
        <mxCell id="kJaCr1eufXVxQuJp8W4G-7" value="" style="edgeStyle=orthogonalEdgeStyle;rounded=0;orthogonalLoop=1;jettySize=auto;html=1;" parent="1" source="kJaCr1eufXVxQuJp8W4G-2" target="kJaCr1eufXVxQuJp8W4G-6" edge="1">
          <mxGeometry relative="1" as="geometry" />
        </mxCell>
        <mxCell id="kJaCr1eufXVxQuJp8W4G-10" value="AdventurerList&lt;br&gt;InformantList&lt;br&gt;BuilderList" style="whiteSpace=wrap;html=1;" parent="1" vertex="1">
          <mxGeometry x="420" y="230" width="120" height="60" as="geometry" />
        </mxCell>
        <mxCell id="kJaCr1eufXVxQuJp8W4G-11" value="" style="edgeStyle=orthogonalEdgeStyle;rounded=0;orthogonalLoop=1;jettySize=auto;html=1;" parent="1" source="kJaCr1eufXVxQuJp8W4G-9" target="kJaCr1eufXVxQuJp8W4G-10" edge="1">
          <mxGeometry relative="1" as="geometry" />
        </mxCell>
        <mxCell id="kJaCr1eufXVxQuJp8W4G-12" value="NPC Gameplay Loop" style="swimlane;whiteSpace=wrap;html=1;" parent="1" vertex="1">
          <mxGeometry x="350" y="330" width="260" height="260" as="geometry" />
        </mxCell>
        <mxCell id="kJaCr1eufXVxQuJp8W4G-14" value="&lt;font style=&quot;font-size: 7px;&quot;&gt;Elsewhere&lt;/font&gt;" style="ellipse;whiteSpace=wrap;html=1;aspect=fixed;dashed=1;dashPattern=1 2;" parent="kJaCr1eufXVxQuJp8W4G-12" vertex="1">
          <mxGeometry x="151.5" y="30" width="40" height="40" as="geometry" />
        </mxCell>
        <mxCell id="kJaCr1eufXVxQuJp8W4G-18" value="" style="edgeStyle=orthogonalEdgeStyle;rounded=0;orthogonalLoop=1;jettySize=auto;html=1;startArrow=classic;startFill=1;" parent="kJaCr1eufXVxQuJp8W4G-12" source="kJaCr1eufXVxQuJp8W4G-15" target="kJaCr1eufXVxQuJp8W4G-17" edge="1">
          <mxGeometry relative="1" as="geometry" />
        </mxCell>
        <mxCell id="kJaCr1eufXVxQuJp8W4G-15" value="&lt;font style=&quot;font-size: 7px;&quot;&gt;Street&lt;br&gt;Outside&lt;/font&gt;" style="ellipse;whiteSpace=wrap;html=1;aspect=fixed;" parent="kJaCr1eufXVxQuJp8W4G-12" vertex="1">
          <mxGeometry x="151.5" y="100" width="40" height="40" as="geometry" />
        </mxCell>
        <mxCell id="kJaCr1eufXVxQuJp8W4G-16" style="edgeStyle=orthogonalEdgeStyle;rounded=0;orthogonalLoop=1;jettySize=auto;html=1;entryX=0.495;entryY=0.085;entryDx=0;entryDy=0;entryPerimeter=0;startArrow=classic;startFill=1;" parent="kJaCr1eufXVxQuJp8W4G-12" source="kJaCr1eufXVxQuJp8W4G-14" target="kJaCr1eufXVxQuJp8W4G-15" edge="1">
          <mxGeometry relative="1" as="geometry" />
        </mxCell>
        <mxCell id="kJaCr1eufXVxQuJp8W4G-20" value="" style="edgeStyle=orthogonalEdgeStyle;rounded=0;orthogonalLoop=1;jettySize=auto;html=1;" parent="kJaCr1eufXVxQuJp8W4G-12" source="kJaCr1eufXVxQuJp8W4G-17" target="kJaCr1eufXVxQuJp8W4G-19" edge="1">
          <mxGeometry relative="1" as="geometry" />
        </mxCell>
        <mxCell id="kJaCr1eufXVxQuJp8W4G-17" value="&lt;span style=&quot;font-size: 7px;&quot;&gt;Tavern&lt;br&gt;Floor&lt;/span&gt;" style="ellipse;whiteSpace=wrap;html=1;aspect=fixed;" parent="kJaCr1eufXVxQuJp8W4G-12" vertex="1">
          <mxGeometry x="151.5" y="170" width="40" height="40" as="geometry" />
        </mxCell>
        <mxCell id="kJaCr1eufXVxQuJp8W4G-21" value="" style="edgeStyle=orthogonalEdgeStyle;rounded=0;orthogonalLoop=1;jettySize=auto;html=1;" parent="kJaCr1eufXVxQuJp8W4G-12" source="kJaCr1eufXVxQuJp8W4G-19" target="kJaCr1eufXVxQuJp8W4G-17" edge="1">
          <mxGeometry relative="1" as="geometry" />
        </mxCell>
        <mxCell id="kJaCr1eufXVxQuJp8W4G-19" value="&lt;span style=&quot;font-size: 7px;&quot;&gt;Seats&lt;/span&gt;" style="ellipse;whiteSpace=wrap;html=1;aspect=fixed;" parent="kJaCr1eufXVxQuJp8W4G-12" vertex="1">
          <mxGeometry x="219" y="175" width="30" height="30" as="geometry" />
        </mxCell>
        <mxCell id="kJaCr1eufXVxQuJp8W4G-22" value="&lt;span style=&quot;font-size: 7px;&quot;&gt;Lodging&lt;/span&gt;" style="ellipse;whiteSpace=wrap;html=1;aspect=fixed;" parent="kJaCr1eufXVxQuJp8W4G-12" vertex="1">
          <mxGeometry x="204" y="210" width="30" height="30" as="geometry" />
        </mxCell>
        <mxCell id="kJaCr1eufXVxQuJp8W4G-24" value="" style="endArrow=classic;startArrow=classic;html=1;rounded=0;exitX=0.826;exitY=0.917;exitDx=0;exitDy=0;exitPerimeter=0;entryX=0;entryY=0;entryDx=0;entryDy=0;" parent="kJaCr1eufXVxQuJp8W4G-12" source="kJaCr1eufXVxQuJp8W4G-17" target="kJaCr1eufXVxQuJp8W4G-22" edge="1">
          <mxGeometry width="50" height="50" relative="1" as="geometry">
            <mxPoint x="191.5" y="240" as="sourcePoint" />
            <mxPoint x="241.5" y="190" as="targetPoint" />
          </mxGeometry>
        </mxCell>
        <mxCell id="kJaCr1eufXVxQuJp8W4G-30" value="" style="edgeStyle=orthogonalEdgeStyle;rounded=0;orthogonalLoop=1;jettySize=auto;html=1;startArrow=classic;startFill=1;" parent="kJaCr1eufXVxQuJp8W4G-12" source="kJaCr1eufXVxQuJp8W4G-26" target="kJaCr1eufXVxQuJp8W4G-29" edge="1">
          <mxGeometry relative="1" as="geometry" />
        </mxCell>
        <mxCell id="kJaCr1eufXVxQuJp8W4G-26" value="&lt;span style=&quot;font-size: 7px;&quot;&gt;Staging Area&lt;/span&gt;" style="ellipse;whiteSpace=wrap;html=1;aspect=fixed;dashed=1;dashPattern=1 1;" parent="kJaCr1eufXVxQuJp8W4G-12" vertex="1">
          <mxGeometry x="86.5" y="130" width="40" height="40" as="geometry" />
        </mxCell>
        <mxCell id="kJaCr1eufXVxQuJp8W4G-27" value="" style="endArrow=none;dashed=1;html=1;dashPattern=1 3;strokeWidth=2;rounded=0;exitX=1;exitY=1;exitDx=0;exitDy=0;entryX=-0.01;entryY=0.276;entryDx=0;entryDy=0;entryPerimeter=0;" parent="kJaCr1eufXVxQuJp8W4G-12" source="kJaCr1eufXVxQuJp8W4G-26" target="kJaCr1eufXVxQuJp8W4G-17" edge="1">
          <mxGeometry width="50" height="50" relative="1" as="geometry">
            <mxPoint x="161.5" y="220" as="sourcePoint" />
            <mxPoint x="211.5" y="170" as="targetPoint" />
          </mxGeometry>
        </mxCell>
        <mxCell id="kJaCr1eufXVxQuJp8W4G-28" value="" style="endArrow=none;dashed=1;html=1;dashPattern=1 3;strokeWidth=2;rounded=0;exitX=1;exitY=0;exitDx=0;exitDy=0;entryX=0;entryY=0.5;entryDx=0;entryDy=0;" parent="kJaCr1eufXVxQuJp8W4G-12" source="kJaCr1eufXVxQuJp8W4G-26" target="kJaCr1eufXVxQuJp8W4G-15" edge="1">
          <mxGeometry width="50" height="50" relative="1" as="geometry">
            <mxPoint x="114" y="180" as="sourcePoint" />
            <mxPoint x="164" y="130" as="targetPoint" />
          </mxGeometry>
        </mxCell>
        <mxCell id="kJaCr1eufXVxQuJp8W4G-29" value="&lt;font style=&quot;font-size: 8px;&quot;&gt;Deployed&lt;/font&gt;" style="shape=parallelogram;perimeter=parallelogramPerimeter;whiteSpace=wrap;html=1;fixedSize=1;dashed=1;dashPattern=1 1;" parent="kJaCr1eufXVxQuJp8W4G-12" vertex="1">
          <mxGeometry x="9" y="140" width="60" height="20" as="geometry" />
        </mxCell>
        <mxCell id="kJaCr1eufXVxQuJp8W4G-31" value="Quest Board" style="shape=hexagon;perimeter=hexagonPerimeter2;whiteSpace=wrap;html=1;fixedSize=1;spacing=-0.1;verticalAlign=middle;fontSize=6;" parent="kJaCr1eufXVxQuJp8W4G-12" vertex="1">
          <mxGeometry x="191.5" y="140" width="27.5" height="30" as="geometry" />
        </mxCell>
        <mxCell id="kJaCr1eufXVxQuJp8W4G-32" value="" style="endArrow=none;html=1;rounded=0;exitX=1;exitY=0;exitDx=0;exitDy=0;entryX=0.266;entryY=0.772;entryDx=0;entryDy=0;entryPerimeter=0;" parent="kJaCr1eufXVxQuJp8W4G-12" source="kJaCr1eufXVxQuJp8W4G-17" target="kJaCr1eufXVxQuJp8W4G-31" edge="1">
          <mxGeometry width="50" height="50" relative="1" as="geometry">
            <mxPoint x="204" y="180" as="sourcePoint" />
            <mxPoint x="254" y="130" as="targetPoint" />
          </mxGeometry>
        </mxCell>
        <mxCell id="kJaCr1eufXVxQuJp8W4G-34" value="" style="endArrow=classic;html=1;rounded=0;exitX=0.5;exitY=1;exitDx=0;exitDy=0;entryX=0.5;entryY=0;entryDx=0;entryDy=0;" parent="1" source="kJaCr1eufXVxQuJp8W4G-10" target="kJaCr1eufXVxQuJp8W4G-14" edge="1">
          <mxGeometry width="50" height="50" relative="1" as="geometry">
            <mxPoint x="510" y="570" as="sourcePoint" />
            <mxPoint x="560" y="520" as="targetPoint" />
          </mxGeometry>
        </mxCell>
        <mxCell id="kJaCr1eufXVxQuJp8W4G-38" value="Elsewhere" style="swimlane;" parent="1" vertex="1" collapsed="1">
          <mxGeometry x="30" y="330" width="100" height="30" as="geometry">
            <mxRectangle x="30" y="330" width="200" height="80" as="alternateBounds" />
          </mxGeometry>
        </mxCell>
        <mxCell id="kJaCr1eufXVxQuJp8W4G-39" value="This is where NPCs &quot;Rest&quot;&lt;br&gt;Their Beginning and End Point&lt;div&gt;&lt;br/&gt;&lt;/div&gt;" style="text;html=1;align=center;verticalAlign=middle;whiteSpace=wrap;rounded=0;" parent="kJaCr1eufXVxQuJp8W4G-38" vertex="1">
          <mxGeometry y="30" width="200" height="50" as="geometry" />
        </mxCell>
        <mxCell id="kJaCr1eufXVxQuJp8W4G-40" value="Street Outside" style="swimlane;" parent="1" vertex="1" collapsed="1">
          <mxGeometry x="30" y="440" width="120" height="30" as="geometry">
            <mxRectangle x="30" y="440" width="200" height="80" as="alternateBounds" />
          </mxGeometry>
        </mxCell>
        <mxCell id="kJaCr1eufXVxQuJp8W4G-41" value="&lt;div&gt;Here NPCs is where NPCs gather and wait to visit the Tavern&lt;/div&gt;" style="text;html=1;align=center;verticalAlign=middle;whiteSpace=wrap;rounded=0;" parent="kJaCr1eufXVxQuJp8W4G-40" vertex="1">
          <mxGeometry y="30" width="200" height="50" as="geometry" />
        </mxCell>
        <mxCell id="kJaCr1eufXVxQuJp8W4G-42" value="Tavern Floor" style="swimlane;" parent="1" vertex="1" collapsed="1">
          <mxGeometry x="30" y="550" width="110" height="30" as="geometry">
            <mxRectangle x="30" y="550" width="200" height="130" as="alternateBounds" />
          </mxGeometry>
        </mxCell>
        <mxCell id="kJaCr1eufXVxQuJp8W4G-43" value="&lt;div&gt;This is an NPCs first steps into the Tavern.&lt;br&gt;From here they have access to its features.&lt;br&gt;An NPC MUST cross the Tavern Floor to get anywhere within the Tavern&lt;/div&gt;" style="text;html=1;align=center;verticalAlign=middle;whiteSpace=wrap;rounded=0;" parent="kJaCr1eufXVxQuJp8W4G-42" vertex="1">
          <mxGeometry y="30" width="200" height="90" as="geometry" />
        </mxCell>
        <mxCell id="kJaCr1eufXVxQuJp8W4G-44" value="Staging Area" style="swimlane;" parent="1" vertex="1" collapsed="1">
          <mxGeometry x="30" y="700" width="110" height="30" as="geometry">
            <mxRectangle x="30" y="700" width="200" height="70" as="alternateBounds" />
          </mxGeometry>
        </mxCell>
        <mxCell id="kJaCr1eufXVxQuJp8W4G-45" value="&lt;div&gt;Here is where NPC wait once assigned to a quest&lt;/div&gt;" style="text;html=1;align=center;verticalAlign=middle;whiteSpace=wrap;rounded=0;" parent="kJaCr1eufXVxQuJp8W4G-44" vertex="1">
          <mxGeometry y="30" width="200" height="40" as="geometry" />
        </mxCell>
      </root>
    </mxGraphModel>
  </diagram>
</mxfile>
